<svg xmlns="http://www.w3.org/2000/svg" xmlns:ns1="http://sodipodi.sourceforge.net/DTD/sodipodi-0.dtd" xmlns:ns2="http://www.inkscape.org/namespaces/inkscape" version="1.1" id="Ebene_1" x="0px" y="0px" viewBox="0 0 240 240" style="enable-background:new 0 0 240 240;" xml:space="preserve" ns1:docname="38505.svg" ns2:version="1.3.2 (091e20e, 2023-11-25)"><defs id="defs23" /><ns1:namedview id="namedview23" pagecolor="#ffffff" bordercolor="#000000" borderopacity="0.25" ns2:showpageshadow="2" ns2:pageopacity="0.0" ns2:pagecheckerboard="0" ns2:deskcolor="#d1d1d1" ns2:zoom="0.98333333" ns2:cx="120" ns2:cy="120" ns2:window-width="1312" ns2:window-height="449" ns2:window-x="0" ns2:window-y="25" ns2:window-maximized="0" ns2:current-layer="Ebene_1" />
<style type="text/css" id="style1">.no-fill{fill:none;}.railroad-tie{fill:#978679;}.railroad{fill:#3D3D3D;}</style>
<g id="g1">
	<rect class="no-fill" width="240" height="240" id="rect1" />
</g>
<g id="g2">
	<rect class="no-fill" width="240" height="240" id="rect2" />
</g>
<g id="g4">
	<rect x="69.5" y="9.5" class="railroad-tie" width="100" height="20" id="rect3" />
	<rect x="210" y="70" class="railroad-tie" width="20" height="100" id="rect4" />
	<polygon class="railroad-tie" points="81.34,58.76 87.45,77.8 177.54,48.88 108.02,108.43 121.03,123.62 190.57,64.06 152.04,147.26    170.19,155.67 212.21,64.92 195.99,57.41 183.97,43.38 181.97,45.09 176.55,28.2  " id="polygon4" />
</g>
<g id="g6">
	<rect x="70.5" y="210.5" class="railroad-tie" width="100" height="20" id="rect5" />
	<rect x="10" y="70" class="railroad-tie" width="20" height="100" id="rect6" />
	<polygon class="railroad-tie" points="158.66,181.24 152.55,162.2 62.46,191.12 131.98,131.57 118.97,116.38 49.43,175.94 87.96,92.74    69.81,84.33 27.79,175.08 44.01,182.59 56.03,196.62 58.03,194.91 63.45,211.8  " id="polygon6" />
</g>
<g id="g12">
	<rect x="10" y="69.5" class="railroad-tie" width="20" height="100" id="rect7" />
	<rect x="210" y="69.5" class="railroad-tie" width="20" height="100" id="rect8" />
	<rect x="170" y="69.5" class="railroad-tie" width="20" height="100" id="rect9" />
	<rect x="130" y="69.5" class="railroad-tie" width="20" height="100" id="rect10" />
	<rect x="90" y="69.5" class="railroad-tie" width="20" height="100" id="rect11" />
	<rect x="50" y="69.5" class="railroad-tie" width="20" height="100" id="rect12" />
</g>
<g id="g18">
	<rect x="70" y="9.5" class="railroad-tie" width="100" height="20" id="rect13" />
	<rect x="70" y="209.5" class="railroad-tie" width="100" height="20" id="rect14" />
	<rect x="70" y="169.5" class="railroad-tie" width="100" height="20" id="rect15" />
	<rect x="70" y="129.5" class="railroad-tie" width="100" height="20" id="rect16" />
	<rect x="70" y="89.5" class="railroad-tie" width="100" height="20" id="rect17" />
	<rect x="70" y="49.5" class="railroad-tie" width="100" height="20" id="rect18" />
</g>
<g id="g19">
	<path class="railroad" d="M89,239.5C89,190.7,49.3,151,0.5,151c-0.17,0-0.33,0.01-0.5,0.01v10.01c0.17,0,0.33-0.01,0.5-0.01   c43.29,0,78.5,35.21,78.5,78.5c0,0.17-0.01,0.33-0.01,0.5h10.01C88.99,239.83,89,239.67,89,239.5z" id="path18" />
	<path class="railroad" d="M0,79v10c83.26,0,151,67.74,151,151h10C161,151.22,88.78,79,0,79z" id="path19" />
</g>
<g id="g20">
	<rect x="0" y="150.51" class="railroad" width="240" height="9.98" id="rect19" />
	<rect x="0" y="78.51" class="railroad" width="240" height="9.98" id="rect20" />
</g>
<g id="g22">
	<rect x="79.01" y="-0.5" class="railroad" width="9.98" height="240" id="rect21" />
	<rect x="151.01" y="-0.5" class="railroad" width="9.98" height="240" id="rect22" />
</g>
<g id="g23">
	<path class="railroad" d="M151,0.5c0,48.8,39.7,88.5,88.5,88.5c0.17,0,0.33-0.01,0.5-0.01V78.99c-0.17,0-0.33,0.01-0.5,0.01   C196.21,79,161,43.79,161,0.5c0-0.17,0.01-0.33,0.01-0.5l-10.01,0C151.01,0.17,151,0.33,151,0.5z" id="path22" />
	<path class="railroad" d="M240,161v-10C156.74,151,89,83.26,89,0L79,0C79,88.78,151.22,161,240,161z" id="path23" />
</g>
</svg>