<svg xmlns="http://www.w3.org/2000/svg" version="1.1" x="0px" y="0px" viewBox="0 0 240 240" style="enable-background:new 0 0 240 240;" xml:space="preserve">
<style type="text/css">.railroad-tie{fill:#978679;}.railroad{fill:#3D3D3D;}.no-fill{fill:none;}</style>
<g id="Ebene_1">
	<g>
		<rect x="70.5" y="210.5" class="railroad-tie" width="100" height="20" />
		<rect x="10" y="70" class="railroad-tie" width="20" height="100" />
		<polygon class="railroad-tie" points="158.66,181.24 152.55,162.2 62.46,191.12 131.98,131.57 118.97,116.38 49.43,175.94 87.96,92.74     69.81,84.33 27.79,175.08 44.01,182.59 56.03,196.62 58.03,194.91 63.45,211.8   " />
	</g>
	<g>
		<path class="railroad" d="M89,239.5C89,190.7,49.3,151,0.5,151c-0.17,0-0.33,0.01-0.5,0.01v10.01c0.17,0,0.33-0.01,0.5-0.01    c43.29,0,78.5,35.21,78.5,78.5c0,0.17-0.01,0.33-0.01,0.5h10.01C88.99,239.83,89,239.67,89,239.5z" />
		<path class="railroad" d="M0,79v10c83.26,0,151,67.74,151,151h10C161,151.22,88.78,79,0,79z" />
	</g>
</g>
<g id="HG">
	<g>
		<rect class="no-fill" width="240" height="240" />
	</g>
</g>
</svg>