<?xml version="1.0" encoding="UTF-8" standalone="no"?>
<!-- Generator: Adobe Illustrator 23.0.3, SVG Export Plug-In . SVG Version: 6.00 Build 0)  -->

<svg
   version="1.1"
   id="Ebene_1"
   x="0px"
   y="0px"
   viewBox="0 0 240 240"
   style="enable-background:new 0 0 240 240;"
   xml:space="preserve"
   sodipodi:docname="50211.svg"
   inkscape:version="1.3.2 (091e20e, 2023-11-25)"
   xmlns:inkscape="http://www.inkscape.org/namespaces/inkscape"
   xmlns:sodipodi="http://sodipodi.sourceforge.net/DTD/sodipodi-0.dtd"
   xmlns="http://www.w3.org/2000/svg"
   xmlns:svg="http://www.w3.org/2000/svg"><defs
   id="defs20" /><sodipodi:namedview
   id="namedview20"
   pagecolor="#ffffff"
   bordercolor="#000000"
   borderopacity="0.25"
   inkscape:showpageshadow="2"
   inkscape:pageopacity="0.0"
   inkscape:pagecheckerboard="0"
   inkscape:deskcolor="#d1d1d1"
   inkscape:zoom="0.98333333"
   inkscape:cx="120"
   inkscape:cy="119.49153"
   inkscape:window-width="1440"
   inkscape:window-height="900"
   inkscape:window-x="0"
   inkscape:window-y="0"
   inkscape:window-maximized="0"
   inkscape:current-layer="Ebene_1" />
<style
   type="text/css"
   id="style1">
	.st0{fill:none;}
	.st1{fill:#978679;}
	.st2{fill:#3D3D3D;}
</style>
<g
   id="g1"
   transform="matrix(-1,0,0,1,240,0)">
	<rect
   class="st0"
   width="240"
   height="240"
   id="rect1"
   x="0"
   y="0" />
</g>
<g
   id="g2"
   transform="matrix(-1,0,0,1,240,0)">
	<rect
   class="st0"
   width="240"
   height="240"
   id="rect2"
   x="0"
   y="0" />
</g>
<g
   id="g4"
   transform="matrix(-1,0,0,1,240,0)">
	<rect
   x="70.5"
   y="210.5"
   class="st1"
   width="100"
   height="20"
   id="rect3" />
	<rect
   x="10"
   y="70"
   class="st1"
   width="20"
   height="100"
   id="rect4" />
	<polygon
   class="st1"
   points="152.55,162.2 62.46,191.12 131.98,131.57 118.97,116.38 49.43,175.94 87.96,92.74 69.81,84.33 27.79,175.08 44.01,182.59 56.03,196.62 58.03,194.91 63.45,211.8 158.66,181.24 "
   id="polygon4" />
</g>
<g
   id="g10"
   transform="matrix(-1,0,0,1,240,0)">
	<rect
   x="10"
   y="69.5"
   class="st1"
   width="20"
   height="100"
   id="rect5" />
	<rect
   x="210"
   y="69.5"
   class="st1"
   width="20"
   height="100"
   id="rect6" />
	<rect
   x="170"
   y="69.5"
   class="st1"
   width="20"
   height="100"
   id="rect7" />
	<rect
   x="130"
   y="69.5"
   class="st1"
   width="20"
   height="100"
   id="rect8" />
	<rect
   x="90"
   y="69.5"
   class="st1"
   width="20"
   height="100"
   id="rect9" />
	<rect
   x="50"
   y="69.5"
   class="st1"
   width="20"
   height="100"
   id="rect10" />
</g>
<g
   id="g16"
   transform="matrix(-1,0,0,1,240,0)">
	<rect
   x="70"
   y="9.5"
   class="st1"
   width="100"
   height="20"
   id="rect11" />
	<rect
   x="70"
   y="209.5"
   class="st1"
   width="100"
   height="20"
   id="rect12" />
	<rect
   x="70"
   y="169.5"
   class="st1"
   width="100"
   height="20"
   id="rect13" />
	<rect
   x="70"
   y="129.5"
   class="st1"
   width="100"
   height="20"
   id="rect14" />
	<rect
   x="70"
   y="89.5"
   class="st1"
   width="100"
   height="20"
   id="rect15" />
	<rect
   x="70"
   y="49.5"
   class="st1"
   width="100"
   height="20"
   id="rect16" />
</g>
<g
   id="g17"
   transform="matrix(-1,0,0,1,240,0)">
	<path
   class="st2"
   d="M 89,239.5 C 89,190.7 49.3,151 0.5,151 0.33,151 0.17,151.01 0,151.01 v 10.01 c 0.17,0 0.33,-0.01 0.5,-0.01 43.29,0 78.5,35.21 78.5,78.5 0,0.17 -0.01,0.33 -0.01,0.5 H 89 c -0.01,-0.18 0,-0.34 0,-0.51 z"
   id="path16" />
	<path
   class="st2"
   d="m 0,79 v 10 c 83.26,0 151,67.74 151,151 h 10 C 161,151.22 88.78,79 0,79 Z"
   id="path17" />
</g>
<g
   id="g18"
   transform="matrix(-1,0,0,1,240,0)">
	<rect
   x="0"
   y="150.50999"
   class="st2"
   width="240"
   height="9.9799995"
   id="rect17" />
	<rect
   x="0"
   y="78.510002"
   class="st2"
   width="240"
   height="9.9799995"
   id="rect18" />
</g>
<g
   id="g20"
   transform="matrix(-1,0,0,1,240,0)">
	<rect
   x="79.010002"
   y="-0.5"
   class="st2"
   width="9.9799995"
   height="240"
   id="rect19" />
	<rect
   x="151.00999"
   y="-0.5"
   class="st2"
   width="9.9799995"
   height="240"
   id="rect20" />
</g>
</svg>
