<svg xmlns="http://www.w3.org/2000/svg" xmlns:ns1="http://sodipodi.sourceforge.net/DTD/sodipodi-0.dtd" xmlns:ns2="http://www.inkscape.org/namespaces/inkscape" version="1.1" id="Ebene_1" x="0px" y="0px" viewBox="0 0 240 240" style="enable-background:new 0 0 240 240;" xml:space="preserve" ns1:docname="6672.svg" ns2:version="1.3.2 (091e20e, 2023-11-25)"><defs id="defs8" /><ns1:namedview id="namedview8" pagecolor="#ffffff" bordercolor="#000000" borderopacity="0.25" ns2:showpageshadow="2" ns2:pageopacity="0.0" ns2:pagecheckerboard="0" ns2:deskcolor="#d1d1d1" ns2:zoom="0.98333333" ns2:cx="120.50847" ns2:cy="120" ns2:window-width="1312" ns2:window-height="449" ns2:window-x="0" ns2:window-y="25" ns2:window-maximized="0" ns2:current-layer="Ebene_1" />
<style type="text/css" id="style1">.railroad-tie{fill:#978679;}.railroad{fill:#3D3D3D;}.no-fill{fill:none;}</style>
<g id="g2" transform="rotate(90,120,120.005)">
	<rect x="69.5" y="210.5" class="railroad-tie" width="100" height="20" id="rect1" />
	<rect x="210" y="70" class="railroad-tie" width="20" height="100" id="rect2" />
	<polygon class="railroad-tie" points="87.45,162.2 177.54,191.12 108.02,131.57 121.03,116.38 190.57,175.94 152.04,92.74 170.19,84.33 212.21,175.08 195.99,182.59 183.97,196.62 181.97,194.91 176.55,211.8 81.34,181.24 " id="polygon2" />
</g>
<g id="g4" transform="rotate(90,120,120.005)">
	<rect x="70.5" y="210.5" class="railroad-tie" width="100" height="20" id="rect3" />
	<rect x="10" y="70" class="railroad-tie" width="20" height="100" id="rect4" />
	<polygon class="railroad-tie" points="152.55,162.2 62.46,191.12 131.98,131.57 118.97,116.38 49.43,175.94 87.96,92.74 69.81,84.33 27.79,175.08 44.01,182.59 56.03,196.62 58.03,194.91 63.45,211.8 158.66,181.24 " id="polygon4" />
</g>
<g id="g5" transform="rotate(90,120,120.005)">
	<path class="railroad" d="m 151,239.5 c 0,-48.8 39.7,-88.5 88.5,-88.5 0.17,0 0.33,0.01 0.5,0.01 v 10.01 c -0.17,0 -0.33,-0.01 -0.5,-0.01 -43.29,0 -78.5,35.21 -78.5,78.5 0,0.17 0.01,0.33 0.01,0.5 H 151 c 0.01,-0.18 0,-0.34 0,-0.51 z" id="path4" />
	<path class="railroad" d="M 240,79 V 89 C 156.74,89 89,156.74 89,240 H 79 C 79,151.22 151.22,79 240,79 Z" id="path5" />
</g>
<g id="g7" transform="rotate(90,120,120.005)">
	<path class="railroad" d="M 89,239.5 C 89,190.7 49.3,151 0.5,151 0.33,151 0.17,151.01 0,151.01 v 10.01 c 0.17,0 0.33,-0.01 0.5,-0.01 43.29,0 78.5,35.21 78.5,78.5 0,0.17 -0.01,0.33 -0.01,0.5 H 89 c -0.01,-0.18 0,-0.34 0,-0.51 z" id="path6" />
	<path class="railroad" d="m 0,79 v 10 c 83.26,0 151,67.74 151,151 h 10 C 161,151.22 88.78,79 0,79 Z" id="path7" />
</g>
<g id="g8" transform="rotate(90,120,120.005)">
	<rect x="0" class="no-fill" width="240" height="240" id="rect7" y="0" />
</g>
</svg>