<?xml version="1.0" encoding="UTF-8" standalone="no"?>
<svg
   version="1.1"
   id="Ebene_1"
   x="0px"
   y="0px"
   viewBox="0 0 240 240"
   style="enable-background:new 0 0 240 240;"
   xml:space="preserve"
   sodipodi:docname="train-0_restyled_signal.svg"
   inkscape:version="1.3.2 (091e20e, 2023-11-25)"
   xmlns:inkscape="http://www.inkscape.org/namespaces/inkscape"
   xmlns:sodipodi="http://sodipodi.sourceforge.net/DTD/sodipodi-0.dtd"
   xmlns="http://www.w3.org/2000/svg"
   xmlns:svg="http://www.w3.org/2000/svg"><defs
   id="defs7" /><sodipodi:namedview
   id="namedview7"
   pagecolor="#ffffff"
   bordercolor="#000000"
   borderopacity="0.25"
   inkscape:showpageshadow="2"
   inkscape:pageopacity="0.0"
   inkscape:pagecheckerboard="0"
   inkscape:deskcolor="#d1d1d1"
   showgrid="false"
   inkscape:zoom="4.7184597"
   inkscape:cx="192.43568"
   inkscape:cy="90.389666"
   inkscape:window-width="1440"
   inkscape:window-height="900"
   inkscape:window-x="0"
   inkscape:window-y="0"
   inkscape:window-maximized="0"
   inkscape:current-layer="g10"><inkscape:grid
     id="grid7"
     units="px"
     originx="0"
     originy="0"
     spacingx="2.4"
     spacingy="2.4"
     empcolor="#0099e5"
     empopacity="0.30196078"
     color="#0099e5"
     opacity="0.14901961"
     empspacing="5"
     dotted="false"
     gridanglex="30"
     gridanglez="30"
     visible="false" /></sodipodi:namedview>
<style
   type="text/css"
   id="style1">.no-fill{fill:none;}.train-outline{fill:#cdcdcd;}.train-fill-0{fill:#d50000;}.train-window{fill:#444444;}.train-roof{fill:#5b5a5a;}.train-headlights{fill:#fbfbfb;}</style>
<g
   id="g1">
	<rect
   class="no-fill"
   width="240"
   height="240"
   id="rect1" />
</g>
<g
   id="g7">
	<path
   class="train-outline"
   d="M157.42,204c5.6-0.02,10.48-1.27,13.18-3.12c1.41-0.97,2.23-2.09,2.22-3.3c0-49.95,0-73.45,0-123.4   c0-11.22-12.64-37.84-52.58-37.83c-39.94-0.01-52.58,26-52.58,37.83c0,49.95,0,73.45,0,123.4c-0.01,0.92,0.47,1.79,1.31,2.58   c2.39,2.24,7.79,3.82,14.09,3.84C107.85,204,132.64,204,157.42,204z M153.01,45.55c0.77-0.64,7.38,5,8,5.71   c0.74,0.85-1.08,2.5-2.92,2.18C156.24,53.11,152.24,46.19,153.01,45.55z M79.48,51.25c0.62-0.71,7.23-6.35,8-5.71   c0.77,0.64-3.23,7.56-5.08,7.89C80.56,53.75,78.74,52.1,79.48,51.25z M120.25,41.49c25.16,0,45.26,11.93,45.26,36.45   c0-7.65-17.29-23.16-45.26-23.16c-27.97,0-45.26,15.51-45.26,23.16C74.99,53.41,95.08,41.49,120.25,41.49z M75.05,194.55   c0-42.94,0-59.42,0-102.36c-1.03-9.8,10.87-32.53,45.2-32.52c34.33-0.01,46.23,22.72,45.2,32.52c0,42.94,0,59.42,0,102.36   c0.03,3.02-5.91,5.49-13.24,5.52c-3.22,0-6.44,0-9.66,0c-0.46,0-0.92,0-1.38,0c-14.14,0-28.29,0-42.43,0c-0.46,0-0.92,0-1.38,0   c-3.02,0-6.04,0-9.07,0C80.96,200.04,75.02,197.57,75.05,194.55z"
   id="path1" />
	<path
   class="train-fill-0"
   d="M98.73,122.24v77.83c14.14,0,28.29,0,42.43,0v-77.83H98.73z"
   id="path2" />
	<path
   class="train-fill-0"
   d="M97.35,200.07v-77.83h-6.41c-4.25,0-7.7-1.44-7.7-3.21v-2.25c0-1.77,3.45-3.21,7.7-3.21h57.69   c4.25,0,7.7,1.44,7.7,3.21v2.25c0,1.77-3.45,3.21-7.7,3.21h-6.08v77.83c3.22,0,6.44,0,9.66,0c7.33-0.03,13.27-2.5,13.24-5.52   c0-42.94,0-59.42,0-102.36c1.03-9.8-10.87-32.53-45.2-32.52c-34.33-0.01-46.23,22.72-45.2,32.52c0,42.94,0,59.42,0,102.36   c-0.03,3.02,5.91,5.49,13.24,5.52C91.31,200.07,94.33,200.07,97.35,200.07z"
   id="path3" />
	<path
   class="train-window"
   d="M120.25,54.78c27.97,0,45.26,15.51,45.26,23.16c0-24.53-20.1-36.45-45.26-36.45   c-25.16,0-45.26,11.93-45.26,36.45C74.99,70.29,92.28,54.78,120.25,54.78z"
   id="path4" />
	<path
   class="train-roof"
   d="M148.63,113.57H90.95c-4.25,0-7.7,1.44-7.7,3.21v2.25c0,1.77,3.45,3.21,7.7,3.21h6.41v77.83   c0.46,0,0.92,0,1.38,0v-77.83h42.43v77.83c0.46,0,0.92,0,1.38,0v-77.83h6.08c4.25,0,7.7-1.44,7.7-3.21v-2.25   C156.33,115.01,152.88,113.57,148.63,113.57z"
   id="path5" />
	<path
   class="train-headlights"
   d="M158.09,53.43c1.85,0.32,3.66-1.33,2.92-2.18c-0.62-0.71-7.23-6.35-8-5.71   C152.24,46.19,156.24,53.11,158.09,53.43z"
   id="path6" />
	<path
   class="train-headlights"
   d="M82.4,53.43c1.85-0.32,5.85-7.24,5.08-7.89c-0.77-0.64-7.38,5-8,5.71C78.74,52.1,80.56,53.75,82.4,53.43z"
   id="path7" />
</g>
<g
   id="g10"><path
     id="circle9"
     style="fill-rule:evenodd;stroke:#000000;stroke-width:14.4"
     d="m 228.00003,76.800003 c 0,9.941126 -8.05887,18.000001 -18,18.000002 -9.94113,-10e-7 -18,-8.058876 -18,-18.000002 V 30.000002 c 0,-9.941126 8.05887,-18.000001 18,-18.000002 9.94113,10e-7 18,8.058876 18,18.000002 z"
     sodipodi:nodetypes="csccscc" /><circle
     style="fill:#ff0000;fill-opacity:1;fill-rule:evenodd;stroke:none;stroke-width:2.00001"
     id="circle8"
     cx="210.00003"
     cy="30.000002"
     r="18.000002" /><circle
     style="fill:#00ff00;fill-opacity:1;fill-rule:evenodd;stroke:none;stroke-width:2.00001"
     id="circle10"
     cx="210.00003"
     cy="76.800003"
     r="18.000002" /></g></svg>
